<?xml version="1.0" encoding="UTF-8"?>
<svg width="512" height="512" viewBox="0 0 512 512" fill="none" xmlns="http://www.w3.org/2000/svg">
    <circle cx="256" cy="256" r="248" fill="#2563eb" fill-opacity="0.1" stroke="#2563eb" stroke-width="16"/>
    <path d="M256 128C192 128 144 176 144 240C144 280 168 314.667 208 334.667V368C208 376.837 215.163 384 224 384H288C296.837 384 304 376.837 304 368V334.667C344 314.667 368 280 368 240C368 176 320 128 256 128ZM284 316.837V364H228V316.837L220.837 313.163C186.837 296.837 166.837 269.163 166.837 236.837C166.837 188.837 206.837 148.837 254.837 148.837C302.837 148.837 342.837 188.837 342.837 236.837C342.837 269.163 322.837 296.837 288.837 313.163L284 316.837Z" fill="#2563eb"/>
    <path d="M256 192C238.327 192 224 206.327 224 224C224 241.673 238.327 256 256 256C273.673 256 288 241.673 288 224C288 206.327 273.673 192 256 192Z" fill="#2563eb"/>
</svg>
